<svg xmlns="http://www.w3.org/2000/svg" xmlns:xlink="http://www.w3.org/1999/xlink" width="336" height="169.193" viewBox="0 0 336 169.193">
  <defs>
    <filter id="Icon_awesome-home" x="59.153" y="0" width="218" height="158" filterUnits="userSpaceOnUse">
      <feOffset dy="3" input="SourceAlpha"/>
      <feGaussianBlur stdDeviation="3" result="blur"/>
      <feFlood flood-color="#97b5d7"/>
      <feComposite operator="in" in2="blur"/>
      <feComposite in="SourceGraphic"/>
    </filter>
    <filter id="Powell_Baker" x="0" y="91.193" width="336" height="78" filterUnits="userSpaceOnUse">
      <feOffset dy="3" input="SourceAlpha"/>
      <feGaussianBlur stdDeviation="3" result="blur-2"/>
      <feFlood flood-color="#97b5d7"/>
      <feComposite operator="in" in2="blur-2"/>
      <feComposite in="SourceGraphic"/>
    </filter>
  </defs>
  <g id="Logo" transform="translate(11 6)">
    <g transform="matrix(1, 0, 0, 1, -11, -6)" filter="url(#Icon_awesome-home)">
      <path id="Icon_awesome-home-2" data-name="Icon awesome-home" d="M97.347,38.573,33.335,86.032v51.221a5.3,5.3,0,0,0,5.555,5l38.907-.091a5.3,5.3,0,0,0,5.527-5V107.25a5.3,5.3,0,0,1,5.555-5H111.1a5.3,5.3,0,0,1,5.555,5V137.14a4.759,4.759,0,0,0,1.621,3.546,5.882,5.882,0,0,0,3.934,1.47l38.893.1a5.3,5.3,0,0,0,5.555-5V86l-64-47.424A4.6,4.6,0,0,0,97.347,38.573ZM198.461,70.83,188.8,63.661,169.435,49.293V6a3.975,3.975,0,0,0-4.166-3.75H145.826A3.975,3.975,0,0,0,141.66,6V28.7L110.576,5.676a18.113,18.113,0,0,0-21.179,0L1.511,70.83a3.5,3.5,0,0,0-.556,5.282L9.809,85.8a4.32,4.32,0,0,0,2.818,1.351,4.488,4.488,0,0,0,3.053-.841l81.667-60.55a4.6,4.6,0,0,1,5.312,0L184.33,86.31a4.49,4.49,0,0,0,5.868-.5l8.853-9.689a3.5,3.5,0,0,0,.927-2.756,3.661,3.661,0,0,0-1.517-2.535Z" transform="translate(68.15 3.75)" fill="#ff9742"/>
    </g>
    <g transform="matrix(1, 0, 0, 1, -11, -6)" filter="url(#Powell_Baker)">
      <text id="Powell_Baker-2" data-name="Powell&amp;Baker" transform="translate(11 144.19)" fill="#ff9742" stroke="#fff" stroke-linejoin="round" stroke-width="2" font-size="50" font-family="TimesNewRomanPS-BoldMT, Times New Roman" font-weight="700"><tspan x="0" y="0">Powell&amp;Baker</tspan></text>
    </g>
  </g>
</svg>
